<?xml version="1.0"?>
<svg width="128" height="128" xmlns="http://www.w3.org/2000/svg" xmlns:svg="http://www.w3.org/2000/svg" xmlns:xlink="http://www.w3.org/1999/xlink">
 <!-- Created with SVG-edit - http://svg-edit.googlecode.com/ -->
 <defs>
  <symbol id="svg_6" viewBox="0 0 16 16" height="16px" width="16px" xmlns:xlink="http://www.w3.org/1999/xlink" xmlns="http://www.w3.org/2000/svg">
   <!-- Generator: Sketch 3.8.3 (29802) - http://www.bohemiancoding.com/sketch -->
   <title>octoface</title>
   <desc>Created with Sketch.</desc>

   <g fill-rule="evenodd" fill="none" id="svg_3">
    <g fill="#000000" id="svg_4">
     <path id="svg_5" d="m14.7,5.34c0.13,-0.32 0.55,-1.59 -0.13,-3.31c0,0 -1.05,-0.33 -3.44,1.3c-1,-0.28 -2.07,-0.32 -3.13,-0.32c-1.06,0 -2.13,0.04 -3.13,0.32c-2.39,-1.64 -3.44,-1.3 -3.44,-1.3c-0.68,1.72 -0.26,2.99 -0.13,3.31c-0.81,0.87 -1.3,1.99 -1.3,3.35c0,5.15 3.33,6.31 7.98,6.31c4.65,0 8.02,-1.16 8.02,-6.31c0,-1.36 -0.49,-2.48 -1.3,-3.35l0,0zm-6.7,8.68c-3.3,0 -5.98,-0.15 -5.98,-3.35c0,-0.76 0.38,-1.48 1.02,-2.07c1.07,-0.98 2.9,-0.46 4.96,-0.46c2.07,0 3.88,-0.52 4.96,0.46c0.65,0.59 1.02,1.3 1.02,2.07c0,3.19 -2.68,3.35 -5.98,3.35l0,0zm-2.51,-5.01c-0.66,0 -1.2,0.8 -1.2,1.78c0,0.98 0.54,1.79 1.2,1.79c0.66,0 1.2,-0.8 1.2,-1.79c0,-0.99 -0.54,-1.78 -1.2,-1.78l0,0zm5.02,0c-0.66,0 -1.2,0.79 -1.2,1.78c0,0.99 0.54,1.79 1.2,1.79c0.66,0 1.2,-0.8 1.2,-1.79c0,-0.99 -0.53,-1.78 -1.2,-1.78l0,0z"/>
    </g>
   </g>
  </symbol>
 </defs>
 <g>
  <title>Layer 1</title>
  <text stroke="null" id="svg_14" xml:space="preserve" text-anchor="middle" font-family="Monospace" font-size="24" y="97.486679" x="83.305038" opacity="0.25" stroke-width="0" fill="#000000">#1234</text>
  <line id="svg_16" y2="101.302929" x2="116.90522" y1="101.302929" x1="46.90522" opacity="0.25" stroke-linecap="null" stroke-linejoin="null" stroke-dasharray="null" stroke-width="2" stroke="#000000" fill="none"/>
 </g>
 <g>
  <title>Layer 2</title>
  <use opacity="0.5" x="33.068651" y="-49.499368" transform="matrix(0.46722935579910496,0,0,0.503316151414295,-5.716224334505739,36.2233603932196) " xlink:href="#svg_6" id="svg_7"/>
  <g id="svg_8"/>
 </g>
</svg>